<svg xmlns="http://www.w3.org/2000/svg" version="1.1" xmlns:xlink="http://www.w3.org/1999/xlink" xmlns:svgjs="http://svgjs.dev/svgjs" width="128" height="128" viewBox="0 0 128 128"><g transform="matrix(0.5597826086956522,0,0,0.5597826086956522,28.225455697831443,12.760752631578946)"><svg viewBox="0 0 66 95" data-background-color="#ffffff" preserveAspectRatio="xMidYMid meet" height="184" width="128" xmlns="http://www.w3.org/2000/svg" xmlns:xlink="http://www.w3.org/1999/xlink"><g id="tight-bounds" transform="matrix(1,0,0,1,-0.0474767896287176,-0.24049999999999727)"><svg viewBox="0 0 66.09495357925742 95.481" height="95.481" width="66.09495357925742"><g><svg viewBox="0 0 66.09495357925742 95.481" height="95.481" width="66.09495357925742"><g><svg viewBox="0 0 66.09495357925742 95.481" height="95.481" width="66.09495357925742"><g id="textblocktransform"><svg viewBox="0 0 66.09495357925742 95.481" height="95.481" width="66.09495357925742" id="textblock"><g><svg viewBox="0 0 66.09495357925742 95.481" height="95.481" width="66.09495357925742"><g><svg viewBox="0 0 66.09495357925742 95.481" height="95.481" width="66.09495357925742"><g><svg xmlns="http://www.w3.org/2000/svg" xmlns:xlink="http://www.w3.org/1999/xlink" version="1.1" x="0" y="0" viewBox="15.389864489029534 0.0009067000182032946 69.22113551097047 99.9970932999818" enable-background="new 0 0 100 100" xml:space="preserve" height="95.481" width="66.09495357925742" class="icon-icon-0" data-fill-palette-color="accent" id="icon-0"><path fill-rule="evenodd" clip-rule="evenodd" d="M83.267 14.739L32.697 0.074c-0.568-0.162-1.152-0.052-1.632 0.303L16.12 11.753c-0.644 0.495-0.872 1.322-0.644 2.069v71.009l52.313 15.167V27.94L22.414 14.605l10.409-7.284 45.361 13.357v67.951c0 1.05 0.746 3.79 3.436 3.79 2.489 0 2.991-2.74 2.991-3.79V16.556C84.61 15.713 84.064 14.975 83.267 14.739z" fill="#B2280B" data-fill-palette-color="accent"></path></svg></g></svg></g></svg></g></svg></g></svg></g></svg></g><defs></defs></svg><rect width="66.09495357925742" height="95.481" fill="none" stroke="none" visibility="hidden"></rect></g></svg></g></svg>